# xmcd CD database file
#
# Track frame offsets:
#        150
#        15895
#        31938
#        40255
#        52148
#        68920
#        81435
#        92110
#        106745
#        119755
#        128225
#        135280
#        147683
#        165045
#        169855
#        183838
#        194163
#        207705
#        215440
#        224413
#
# Disc length: 3134 seconds
#
# Revision: 0
# Processed by: cddbd v1.5.2PL0 Copyright (c) Steve Scherf et al.
# Submitted via: CUERipper 2.1.7
#
DISCID=2c0c3c14
DTITLE=Ike Tomohiro - Nobuta wo Produce
DYEAR=2005
DGENRE=Soundtrack
TTITLE0=Seisyun Bomber
TTITLE1=Green Willow
TTITLE2=Seisyun Guitar
TTITLE3=Seisyun Bomber Pf1
TTITLE4=Gakkou no Okujo de...
TTITLE5=Seisyun Bomber Hensokyoku
TTITLE6=Inteli Song
TTITLE7=Green Willow Pf1
TTITLE8=Shiken Benkyo1
TTITLE9=Seisyun Bomber Pf2
TTITLE10=Tengu Song1
TTITLE11=Gakko no Okujo de Pf1
TTITLE12=Knashii Toki ni Hitori de
TTITLE13=Tengu Song2
TTITLE14=Shiken Benkyo 2
TTITLE15=Green Willow Guitar2
TTITLE16=Jitensya Tsuugaku
TTITLE17=Seisyun Synth(Koni's 80's)
TTITLE18=Jitensya Tsuugaku Pf1
TTITLE19=Seisyun Bomber Guitar1
EXTD=
EXTT0=
EXTT1=
EXTT2=
EXTT3=
EXTT4=
EXTT5=
EXTT6=
EXTT7=
EXTT8=
EXTT9=
EXTT10=
EXTT11=
EXTT12=
EXTT13=
EXTT14=
EXTT15=
EXTT16=
EXTT17=
EXTT18=
EXTT19=
PLAYORDER=
